<svg width="620" height="550" viewBox="0 0 620 550" fill="none" xmlns="http://www.w3.org/2000/svg">
<rect x="33" y="32" width="544" height="484" fill="#FFBC9F"/>
<path d="M38.5 534.5L37 546.5M24 531C22.3333 534.667 17 543.2 9 548M15 519.5C14.1667 520.5 10.5 522.6 2.5 523M594.5 39.5C597 37.5 604.1 33.5 612.5 33.5M592 24C596.5 18.3333 608 6 618 2M577 16C579.333 14.3333 584.3 9.2 585.5 2" stroke="#FFBC9F" stroke-width="4" stroke-linecap="round"/>
<g filter="url(#filter0_d_151_203)">
<rect x="73" y="72" width="464" height="56" rx="12" fill="white"/>
</g>
<rect x="468" y="91" width="49" height="18" rx="5" fill="#35B2AA" fill-opacity="0.25"/>
<path fill-rule="evenodd" clip-rule="evenodd" d="M482.299 97.3005C482.335 97.1246 482.179 96.9691 482.003 97.0053L477.616 97.9073C477.421 97.9474 477.349 98.1882 477.489 98.3289L478.836 99.6758L476.78 101.732L475.158 100.11C474.963 99.9149 474.646 99.9149 474.451 100.11L472.146 102.415C471.951 102.61 471.951 102.927 472.146 103.122C472.342 103.317 472.658 103.317 472.854 103.122L474.805 101.171L476.426 102.793C476.622 102.988 476.938 102.988 477.134 102.793L479.543 100.383L480.975 101.815C481.116 101.955 481.357 101.883 481.397 101.688L482.299 97.3005Z" fill="#35B2AA"/>
<path d="M492.716 104V97.04L491.36 97.352V96.416L493.22 95.6H494.036V104H492.716ZM499.151 104.144C498.559 104.144 498.047 104.04 497.615 103.832C497.183 103.616 496.839 103.324 496.583 102.956C496.335 102.58 496.183 102.156 496.127 101.684H497.375C497.455 102.084 497.655 102.416 497.975 102.68C498.295 102.936 498.691 103.064 499.163 103.064C499.515 103.064 499.819 102.98 500.075 102.812C500.331 102.636 500.531 102.404 500.675 102.116C500.819 101.828 500.891 101.504 500.891 101.144C500.891 100.576 500.731 100.124 500.411 99.788C500.091 99.444 499.687 99.272 499.199 99.272C498.783 99.272 498.427 99.372 498.131 99.572C497.835 99.764 497.619 100.008 497.483 100.304H496.271L496.991 95.6H501.527V96.716H497.951L497.519 98.96C497.703 98.752 497.955 98.58 498.275 98.444C498.603 98.3 498.971 98.228 499.379 98.228C499.947 98.228 500.435 98.36 500.843 98.624C501.251 98.88 501.563 99.228 501.779 99.668C502.003 100.108 502.115 100.596 502.115 101.132C502.115 101.692 501.995 102.2 501.755 102.656C501.515 103.112 501.171 103.476 500.723 103.748C500.283 104.012 499.759 104.144 499.151 104.144ZM505.717 99.608C505.341 99.608 505.001 99.524 504.697 99.356C504.401 99.188 504.165 98.952 503.989 98.648C503.813 98.336 503.725 97.964 503.725 97.532C503.725 97.108 503.813 96.744 503.989 96.44C504.165 96.128 504.405 95.888 504.709 95.72C505.013 95.552 505.353 95.468 505.729 95.468C506.097 95.468 506.429 95.552 506.725 95.72C507.029 95.888 507.269 96.128 507.445 96.44C507.621 96.744 507.709 97.108 507.709 97.532C507.709 97.964 507.621 98.336 507.445 98.648C507.269 98.952 507.029 99.188 506.725 99.356C506.429 99.524 506.093 99.608 505.717 99.608ZM505.117 104L509.929 95.6H511.177L506.377 104H505.117ZM505.717 98.696C505.973 98.696 506.193 98.6 506.377 98.408C506.569 98.208 506.665 97.916 506.665 97.532C506.665 97.148 506.573 96.86 506.389 96.668C506.205 96.468 505.981 96.368 505.717 96.368C505.461 96.368 505.237 96.468 505.045 96.668C504.853 96.86 504.757 97.148 504.757 97.532C504.757 97.916 504.849 98.208 505.033 98.408C505.225 98.6 505.453 98.696 505.717 98.696ZM510.649 104.144C510.273 104.144 509.933 104.06 509.629 103.892C509.333 103.724 509.097 103.488 508.921 103.184C508.745 102.872 508.657 102.5 508.657 102.068C508.657 101.644 508.745 101.276 508.921 100.964C509.097 100.652 509.337 100.412 509.641 100.244C509.945 100.076 510.285 99.992 510.661 99.992C511.029 99.992 511.361 100.076 511.657 100.244C511.961 100.412 512.201 100.652 512.377 100.964C512.553 101.276 512.641 101.644 512.641 102.068C512.641 102.5 512.553 102.872 512.377 103.184C512.201 103.488 511.961 103.724 511.657 103.892C511.361 104.06 511.025 104.144 510.649 104.144ZM510.649 103.22C510.905 103.22 511.125 103.124 511.309 102.932C511.501 102.74 511.597 102.452 511.597 102.068C511.597 101.684 511.505 101.396 511.321 101.204C511.137 101.004 510.913 100.904 510.649 100.904C510.393 100.904 510.169 101.004 509.977 101.204C509.785 101.396 509.689 101.684 509.689 102.068C509.689 102.452 509.781 102.74 509.965 102.932C510.157 103.124 510.385 103.22 510.649 103.22Z" fill="#35B2AA"/>
<path d="M114.811 90.2001C114.651 90.0401 114.441 89.9801 114.241 89.9901H110.171C109.761 89.9901 109.421 90.3301 109.421 90.7401C109.421 91.1501 109.761 91.4901 110.171 91.4901H112.461L109.641 94.3201C109.351 94.6101 109.351 95.0901 109.641 95.3801C109.791 95.5301 109.981 95.6001 110.171 95.6001C110.361 95.6001 110.551 95.5301 110.701 95.3801L113.521 92.5501V94.8501C113.521 95.2601 113.861 95.6001 114.271 95.6001C114.681 95.6001 115.021 95.2601 115.021 94.8501V90.7801C115.041 90.5701 114.971 90.3601 114.811 90.2001ZM102.421 100.44V101.38C102.071 101.27 101.871 101.07 101.871 100.91C101.871 100.75 102.071 100.55 102.421 100.44ZM104.091 103.14C104.091 103.29 103.881 103.49 103.531 103.61V102.66C103.881 102.78 104.091 102.98 104.091 103.14Z" fill="#FECB63"/>
<path d="M102.981 94.0701C98.6013 94.0701 95.0312 97.6401 95.0312 102.02C95.0312 106.41 98.6013 109.98 102.981 109.98C107.361 109.98 110.921 106.41 110.921 102.02C110.921 97.6401 107.361 94.0701 102.981 94.0701ZM103.531 104.75V104.8C103.531 105.11 103.281 105.36 102.981 105.36C102.671 105.36 102.421 105.11 102.421 104.8V104.75C101.891 104.65 101.421 104.41 101.111 104.06C100.951 103.86 100.931 103.58 101.081 103.37C101.221 103.16 101.491 103.08 101.731 103.17L102.421 103.44V102.52C101.451 102.34 100.751 101.7 100.751 100.91C100.751 100.12 101.451 99.4801 102.421 99.3001V99.2401C102.421 98.9301 102.671 98.6801 102.981 98.6801C103.281 98.6801 103.531 98.9301 103.531 99.2401V99.2901C104.071 99.3901 104.541 99.6401 104.841 99.9901C105.011 100.18 105.021 100.46 104.881 100.67C104.771 100.82 104.601 100.91 104.421 100.91C104.351 100.91 104.291 100.9 104.221 100.87L103.531 100.61V101.52C104.501 101.7 105.201 102.34 105.201 103.14C105.201 103.93 104.501 104.57 103.531 104.75ZM114.791 90.2001C114.631 90.0401 114.421 89.9801 114.221 89.9901H110.151C109.741 89.9901 109.401 90.3301 109.401 90.7401C109.401 91.1501 109.741 91.4901 110.151 91.4901H112.441L109.621 94.3201C109.331 94.6101 109.331 95.0901 109.621 95.3801C109.771 95.5301 109.961 95.6001 110.151 95.6001C110.341 95.6001 110.531 95.5301 110.681 95.3801L113.501 92.5501V94.8501C113.501 95.2601 113.841 95.6001 114.251 95.6001C114.661 95.6001 115.001 95.2601 115.001 94.8501V90.7801C115.011 90.5701 114.941 90.3601 114.791 90.2001Z" fill="#FECB63"/>
<path d="M104.06 103.14C104.06 103.29 103.85 103.49 103.5 103.61V102.66C103.85 102.78 104.06 102.98 104.06 103.14Z" fill="#FECB63"/>
<path d="M102.95 94.0701C98.57 94.0701 95 97.6401 95 102.02C95 106.41 98.57 109.98 102.95 109.98C107.33 109.98 110.89 106.41 110.89 102.02C110.89 97.6401 107.33 94.0701 102.95 94.0701ZM103.5 104.75V104.8C103.5 105.11 103.25 105.36 102.95 105.36C102.64 105.36 102.39 105.11 102.39 104.8V104.75C101.86 104.65 101.39 104.41 101.08 104.06C100.92 103.86 100.9 103.58 101.05 103.37C101.19 103.16 101.46 103.08 101.7 103.17L102.39 103.44V102.52C101.42 102.34 100.72 101.7 100.72 100.91C100.72 100.12 101.42 99.4801 102.39 99.3001V99.2401C102.39 98.9301 102.64 98.6801 102.95 98.6801C103.25 98.6801 103.5 98.9301 103.5 99.2401V99.2901C104.04 99.3901 104.51 99.6401 104.81 99.9901C104.98 100.18 104.99 100.46 104.85 100.67C104.74 100.82 104.57 100.91 104.39 100.91C104.32 100.91 104.26 100.9 104.19 100.87L103.5 100.61V101.52C104.47 101.7 105.17 102.34 105.17 103.14C105.17 103.93 104.47 104.57 103.5 104.75Z" fill="#FECB63"/>
<path d="M134.76 105V95.176H131.448V93.8H139.752V95.176H136.456V105H134.76ZM143.55 105.192C142.792 105.192 142.11 105.021 141.502 104.68C140.904 104.328 140.43 103.843 140.078 103.224C139.726 102.595 139.55 101.864 139.55 101.032C139.55 100.2 139.726 99.4747 140.078 98.856C140.44 98.2267 140.926 97.7413 141.534 97.4C142.142 97.048 142.819 96.872 143.566 96.872C144.323 96.872 145 97.048 145.598 97.4C146.206 97.7413 146.686 98.2267 147.038 98.856C147.4 99.4747 147.582 100.2 147.582 101.032C147.582 101.864 147.4 102.595 147.038 103.224C146.686 103.843 146.206 104.328 145.598 104.68C144.99 105.021 144.307 105.192 143.55 105.192ZM143.55 103.736C143.955 103.736 144.328 103.635 144.67 103.432C145.022 103.229 145.304 102.931 145.518 102.536C145.731 102.131 145.838 101.629 145.838 101.032C145.838 100.435 145.731 99.9387 145.518 99.544C145.315 99.1387 145.038 98.8347 144.686 98.632C144.344 98.4293 143.971 98.328 143.566 98.328C143.16 98.328 142.782 98.4293 142.43 98.632C142.088 98.8347 141.811 99.1387 141.598 99.544C141.384 99.9387 141.278 100.435 141.278 101.032C141.278 101.629 141.384 102.131 141.598 102.536C141.811 102.931 142.088 103.229 142.43 103.432C142.771 103.635 143.144 103.736 143.55 103.736ZM152.431 105C151.653 105 151.034 104.813 150.575 104.44C150.117 104.056 149.887 103.379 149.887 102.408V98.488H148.527V97.064H149.887L150.095 95.048H151.583V97.064H153.823V98.488H151.583V102.408C151.583 102.845 151.674 103.149 151.855 103.32C152.047 103.48 152.373 103.56 152.831 103.56H153.743V105H152.431ZM158.26 105.192C157.588 105.192 157.033 105.08 156.596 104.856C156.159 104.632 155.833 104.339 155.62 103.976C155.407 103.603 155.3 103.197 155.3 102.76C155.3 101.992 155.599 101.384 156.196 100.936C156.793 100.488 157.647 100.264 158.756 100.264H160.836V100.12C160.836 99.5013 160.665 99.0373 160.324 98.728C159.993 98.4187 159.561 98.264 159.028 98.264C158.559 98.264 158.148 98.3813 157.796 98.616C157.455 98.84 157.247 99.176 157.172 99.624H155.476C155.529 99.048 155.721 98.5573 156.052 98.152C156.393 97.736 156.82 97.4213 157.332 97.208C157.855 96.984 158.425 96.872 159.044 96.872C160.153 96.872 161.012 97.1653 161.62 97.752C162.228 98.328 162.532 99.1173 162.532 100.12V105H161.06L160.916 103.64C160.692 104.077 160.367 104.445 159.94 104.744C159.513 105.043 158.953 105.192 158.26 105.192ZM158.596 103.816C159.055 103.816 159.439 103.709 159.748 103.496C160.068 103.272 160.313 102.979 160.484 102.616C160.665 102.253 160.777 101.853 160.82 101.416H158.932C158.26 101.416 157.78 101.533 157.492 101.768C157.215 102.003 157.076 102.296 157.076 102.648C157.076 103.011 157.209 103.299 157.476 103.512C157.753 103.715 158.127 103.816 158.596 103.816ZM164.51 105V93.48H166.206V105H164.51ZM172.449 105V93.8H174.145V105H172.449ZM176.353 105V97.064H177.857L177.985 98.456C178.231 97.9653 178.588 97.5813 179.057 97.304C179.537 97.016 180.087 96.872 180.705 96.872C181.665 96.872 182.417 97.1707 182.961 97.768C183.516 98.3653 183.793 99.256 183.793 100.44V105H182.113V100.616C182.113 99.08 181.484 98.312 180.225 98.312C179.596 98.312 179.073 98.536 178.657 98.984C178.252 99.432 178.049 100.072 178.049 100.904V105H176.353ZM189.551 105.192C188.772 105.192 188.073 105.016 187.455 104.664C186.847 104.312 186.367 103.827 186.015 103.208C185.673 102.579 185.503 101.853 185.503 101.032C185.503 100.211 185.673 99.4907 186.015 98.872C186.367 98.2427 186.847 97.752 187.455 97.4C188.073 97.048 188.772 96.872 189.551 96.872C190.532 96.872 191.353 97.128 192.015 97.64C192.687 98.152 193.119 98.8453 193.311 99.72H191.535C191.428 99.2827 191.193 98.9413 190.831 98.696C190.468 98.4507 190.041 98.328 189.551 98.328C189.135 98.328 188.751 98.4347 188.399 98.648C188.047 98.8507 187.764 99.1547 187.551 99.56C187.337 99.9547 187.231 100.445 187.231 101.032C187.231 101.619 187.337 102.115 187.551 102.52C187.764 102.915 188.047 103.219 188.399 103.432C188.751 103.645 189.135 103.752 189.551 103.752C190.041 103.752 190.468 103.629 190.831 103.384C191.193 103.139 191.428 102.792 191.535 102.344H193.311C193.129 103.197 192.703 103.885 192.031 104.408C191.359 104.931 190.532 105.192 189.551 105.192ZM198.862 105.192C198.105 105.192 197.422 105.021 196.814 104.68C196.217 104.328 195.742 103.843 195.39 103.224C195.038 102.595 194.862 101.864 194.862 101.032C194.862 100.2 195.038 99.4747 195.39 98.856C195.753 98.2267 196.238 97.7413 196.846 97.4C197.454 97.048 198.131 96.872 198.878 96.872C199.635 96.872 200.313 97.048 200.91 97.4C201.518 97.7413 201.998 98.2267 202.35 98.856C202.713 99.4747 202.894 100.2 202.894 101.032C202.894 101.864 202.713 102.595 202.35 103.224C201.998 103.843 201.518 104.328 200.91 104.68C200.302 105.021 199.619 105.192 198.862 105.192ZM198.862 103.736C199.267 103.736 199.641 103.635 199.982 103.432C200.334 103.229 200.617 102.931 200.83 102.536C201.043 102.131 201.15 101.629 201.15 101.032C201.15 100.435 201.043 99.9387 200.83 99.544C200.627 99.1387 200.35 98.8347 199.998 98.632C199.657 98.4293 199.283 98.328 198.878 98.328C198.473 98.328 198.094 98.4293 197.742 98.632C197.401 98.8347 197.123 99.1387 196.91 99.544C196.697 99.9387 196.59 100.435 196.59 101.032C196.59 101.629 196.697 102.131 196.91 102.536C197.123 102.931 197.401 103.229 197.742 103.432C198.083 103.635 198.457 103.736 198.862 103.736ZM204.728 105V97.064H206.232L206.376 98.184C206.632 97.7787 206.968 97.4587 207.384 97.224C207.811 96.9893 208.302 96.872 208.856 96.872C210.115 96.872 210.99 97.368 211.48 98.36C211.768 97.9013 212.152 97.5387 212.632 97.272C213.123 97.0053 213.651 96.872 214.216 96.872C215.208 96.872 215.987 97.1707 216.552 97.768C217.118 98.3653 217.4 99.256 217.4 100.44V105H215.704V100.616C215.704 99.08 215.118 98.312 213.944 98.312C213.347 98.312 212.856 98.536 212.472 98.984C212.099 99.432 211.912 100.072 211.912 100.904V105H210.216V100.616C210.216 99.08 209.624 98.312 208.44 98.312C207.854 98.312 207.368 98.536 206.984 98.984C206.611 99.432 206.424 100.072 206.424 100.904V105H204.728ZM223.097 105.192C222.318 105.192 221.625 105.021 221.017 104.68C220.419 104.328 219.95 103.843 219.609 103.224C219.267 102.605 219.097 101.885 219.097 101.064C219.097 100.232 219.262 99.5013 219.593 98.872C219.934 98.2427 220.403 97.752 221.001 97.4C221.609 97.048 222.313 96.872 223.113 96.872C223.891 96.872 224.569 97.048 225.145 97.4C225.721 97.7413 226.169 98.2 226.489 98.776C226.809 99.352 226.969 99.9867 226.969 100.68C226.969 100.787 226.963 100.904 226.953 101.032C226.953 101.149 226.947 101.283 226.937 101.432H220.761C220.814 102.2 221.065 102.787 221.513 103.192C221.971 103.587 222.499 103.784 223.097 103.784C223.577 103.784 223.977 103.677 224.297 103.464C224.627 103.24 224.873 102.941 225.033 102.568H226.729C226.515 103.315 226.089 103.939 225.449 104.44C224.819 104.941 224.035 105.192 223.097 105.192ZM223.097 98.264C222.531 98.264 222.03 98.4347 221.593 98.776C221.155 99.1067 220.889 99.608 220.793 100.28H225.273C225.241 99.6613 225.022 99.1707 224.617 98.808C224.211 98.4453 223.705 98.264 223.097 98.264Z" fill="#003A30"/>
<path d="M375.848 106.392V105.16C374.802 105.043 373.965 104.675 373.336 104.056C372.706 103.437 372.386 102.627 372.376 101.624H374.168C374.178 102.125 374.328 102.568 374.616 102.952C374.904 103.325 375.314 103.576 375.848 103.704V99.848C375.762 99.8267 375.672 99.8 375.576 99.768C375.49 99.736 375.4 99.704 375.304 99.672C374.44 99.384 373.789 99.0107 373.352 98.552C372.925 98.0933 372.712 97.4907 372.712 96.744C372.701 95.8693 372.984 95.1547 373.56 94.6C374.136 94.0453 374.898 93.72 375.848 93.624V92.344H376.936V93.64C377.864 93.7467 378.61 94.0827 379.176 94.648C379.741 95.2133 380.029 95.9227 380.04 96.776H378.248C378.237 96.424 378.12 96.0933 377.896 95.784C377.682 95.464 377.362 95.2453 376.936 95.128V98.552C377.021 98.584 377.106 98.616 377.192 98.648C377.277 98.6693 377.362 98.696 377.448 98.728C378.002 98.9093 378.498 99.128 378.936 99.384C379.373 99.64 379.72 99.976 379.976 100.392C380.242 100.808 380.376 101.336 380.376 101.976C380.376 102.509 380.248 103.011 379.992 103.48C379.736 103.939 379.352 104.323 378.84 104.632C378.328 104.941 377.693 105.123 376.936 105.176V106.392H375.848ZM374.472 96.6C374.472 97.0267 374.594 97.3573 374.84 97.592C375.085 97.816 375.421 98.0133 375.848 98.184V95.08C375.442 95.1547 375.112 95.3253 374.856 95.592C374.6 95.848 374.472 96.184 374.472 96.6ZM378.584 102.088C378.584 101.565 378.429 101.171 378.12 100.904C377.81 100.627 377.416 100.397 376.936 100.216V103.736C377.458 103.672 377.864 103.491 378.152 103.192C378.44 102.893 378.584 102.525 378.584 102.088ZM386.037 105V103.784C386.762 103.208 387.456 102.627 388.117 102.04C388.778 101.453 389.365 100.877 389.877 100.312C390.4 99.736 390.81 99.176 391.109 98.632C391.408 98.0773 391.557 97.544 391.557 97.032C391.557 96.6907 391.498 96.3707 391.381 96.072C391.264 95.7627 391.072 95.5173 390.805 95.336C390.538 95.144 390.181 95.048 389.733 95.048C389.061 95.048 388.554 95.2613 388.213 95.688C387.882 96.1147 387.722 96.6267 387.733 97.224H386.085C386.096 96.4347 386.261 95.7733 386.581 95.24C386.912 94.7067 387.349 94.3013 387.893 94.024C388.448 93.7467 389.072 93.608 389.765 93.608C390.821 93.608 391.664 93.9067 392.293 94.504C392.933 95.0907 393.253 95.912 393.253 96.968C393.253 97.5973 393.098 98.2213 392.789 98.84C392.49 99.4587 392.096 100.056 391.605 100.632C391.125 101.197 390.608 101.731 390.053 102.232C389.498 102.733 388.97 103.187 388.469 103.592H393.589V105H386.037ZM396.569 105V95.72L394.761 96.136V94.888L397.241 93.8H398.329V105H396.569ZM399.597 106.888L400.525 103.112H402.205L400.733 106.888H399.597ZM404.654 105L408.99 95.256H403.166V93.8H410.734V95.032L406.43 105H404.654ZM416.631 105V102.76H411.015V101.416L416.359 93.8H418.311V101.288H419.879V102.76H418.311V105H416.631ZM412.855 101.288H416.727V95.672L412.855 101.288ZM425.607 105.192C424.786 105.192 424.093 105.037 423.527 104.728C422.962 104.419 422.503 104.008 422.151 103.496C421.81 102.984 421.565 102.408 421.415 101.768C421.266 101.128 421.191 100.472 421.191 99.8C421.191 98.5627 421.362 97.48 421.703 96.552C422.055 95.624 422.557 94.904 423.207 94.392C423.858 93.8693 424.647 93.608 425.575 93.608C426.311 93.608 426.941 93.752 427.463 94.04C427.986 94.328 428.391 94.712 428.679 95.192C428.978 95.672 429.159 96.1947 429.223 96.76H427.639C427.543 96.2053 427.314 95.7787 426.951 95.48C426.589 95.1813 426.125 95.032 425.559 95.032C424.781 95.032 424.135 95.4 423.623 96.136C423.122 96.8613 422.855 97.9813 422.823 99.496C423.079 99.0267 423.474 98.6267 424.007 98.296C424.551 97.9653 425.175 97.8 425.879 97.8C426.509 97.8 427.095 97.9493 427.639 98.248C428.194 98.5467 428.642 98.968 428.983 99.512C429.335 100.045 429.511 100.68 429.511 101.416C429.511 102.067 429.351 102.68 429.031 103.256C428.711 103.832 428.258 104.301 427.671 104.664C427.095 105.016 426.407 105.192 425.607 105.192ZM425.511 103.72C425.959 103.72 426.359 103.624 426.711 103.432C427.063 103.24 427.341 102.979 427.543 102.648C427.746 102.307 427.847 101.923 427.847 101.496C427.847 100.813 427.623 100.269 427.175 99.864C426.738 99.4587 426.178 99.256 425.495 99.256C425.047 99.256 424.642 99.3573 424.279 99.56C423.927 99.7627 423.65 100.035 423.447 100.376C423.245 100.707 423.143 101.075 423.143 101.48C423.143 101.917 423.245 102.307 423.447 102.648C423.661 102.979 423.943 103.24 424.295 103.432C424.658 103.624 425.063 103.72 425.511 103.72ZM430.597 106.888L431.525 103.112H433.205L431.733 106.888H430.597ZM439.35 105.192C438.337 105.192 437.462 104.952 436.726 104.472C436.001 103.981 435.441 103.304 435.046 102.44C434.662 101.565 434.47 100.552 434.47 99.4C434.47 98.248 434.662 97.24 435.046 96.376C435.441 95.5013 436.001 94.824 436.726 94.344C437.462 93.8533 438.337 93.608 439.35 93.608C440.364 93.608 441.233 93.8533 441.958 94.344C442.684 94.824 443.238 95.5013 443.622 96.376C444.017 97.24 444.214 98.248 444.214 99.4C444.214 100.552 444.017 101.565 443.622 102.44C443.238 103.304 442.684 103.981 441.958 104.472C441.233 104.952 440.364 105.192 439.35 105.192ZM439.35 103.672C439.958 103.672 440.497 103.501 440.966 103.16C441.446 102.819 441.82 102.328 442.086 101.688C442.353 101.048 442.486 100.285 442.486 99.4C442.486 98.5147 442.353 97.752 442.086 97.112C441.82 96.472 441.446 95.9813 440.966 95.64C440.497 95.2987 439.958 95.128 439.35 95.128C438.732 95.128 438.188 95.2987 437.718 95.64C437.249 95.9813 436.881 96.472 436.614 97.112C436.348 97.752 436.214 98.5147 436.214 99.4C436.214 100.285 436.348 101.048 436.614 101.688C436.881 102.328 437.249 102.819 437.718 103.16C438.188 103.501 438.732 103.672 439.35 103.672ZM445.756 105V103.784C446.481 103.208 447.174 102.627 447.836 102.04C448.497 101.453 449.084 100.877 449.596 100.312C450.118 99.736 450.529 99.176 450.828 98.632C451.126 98.0773 451.276 97.544 451.276 97.032C451.276 96.6907 451.217 96.3707 451.1 96.072C450.982 95.7627 450.79 95.5173 450.524 95.336C450.257 95.144 449.9 95.048 449.452 95.048C448.78 95.048 448.273 95.2613 447.932 95.688C447.601 96.1147 447.441 96.6267 447.452 97.224H445.804C445.814 96.4347 445.98 95.7733 446.3 95.24C446.63 94.7067 447.068 94.3013 447.612 94.024C448.166 93.7467 448.79 93.608 449.484 93.608C450.54 93.608 451.382 93.9067 452.012 94.504C452.652 95.0907 452.972 95.912 452.972 96.968C452.972 97.5973 452.817 98.2213 452.508 98.84C452.209 99.4587 451.814 100.056 451.324 100.632C450.844 101.197 450.326 101.731 449.772 102.232C449.217 102.733 448.689 103.187 448.188 103.592H453.308V105H445.756Z" fill="#003A30"/>
<g filter="url(#filter1_d_151_203)">
<rect x="73" y="146" width="464" height="56" rx="12" fill="white"/>
</g>
<rect x="468" y="165" width="50" height="18" rx="5" fill="#FFA882" fill-opacity="0.25"/>
<path fill-rule="evenodd" clip-rule="evenodd" d="M482.299 176.7C482.335 176.875 482.179 177.031 482.003 176.995L477.616 176.093C477.421 176.053 477.349 175.812 477.489 175.671L478.836 174.324L476.78 172.268L475.158 173.89C474.963 174.085 474.646 174.085 474.451 173.89L472.146 171.585C471.951 171.39 471.951 171.073 472.146 170.878C472.342 170.683 472.658 170.683 472.854 170.878L474.805 172.829L476.426 171.207C476.622 171.012 476.938 171.012 477.134 171.207L479.543 173.617L480.975 172.185C481.116 172.045 481.357 172.117 481.397 172.312L482.299 176.7Z" fill="#FFA882"/>
<path d="M492.716 178V171.04L491.36 171.352V170.416L493.22 169.6H494.036V178H492.716ZM499.583 178.144C498.823 178.144 498.167 177.964 497.615 177.604C497.071 177.236 496.651 176.728 496.355 176.08C496.067 175.424 495.923 174.664 495.923 173.8C495.923 172.936 496.067 172.18 496.355 171.532C496.651 170.876 497.071 170.368 497.615 170.008C498.167 169.64 498.823 169.456 499.583 169.456C500.343 169.456 500.995 169.64 501.539 170.008C502.083 170.368 502.499 170.876 502.787 171.532C503.083 172.18 503.231 172.936 503.231 173.8C503.231 174.664 503.083 175.424 502.787 176.08C502.499 176.728 502.083 177.236 501.539 177.604C500.995 177.964 500.343 178.144 499.583 178.144ZM499.583 177.004C500.039 177.004 500.443 176.876 500.795 176.62C501.155 176.364 501.435 175.996 501.635 175.516C501.835 175.036 501.935 174.464 501.935 173.8C501.935 173.136 501.835 172.564 501.635 172.084C501.435 171.604 501.155 171.236 500.795 170.98C500.443 170.724 500.039 170.596 499.583 170.596C499.119 170.596 498.711 170.724 498.359 170.98C498.007 171.236 497.731 171.604 497.531 172.084C497.331 172.564 497.231 173.136 497.231 173.8C497.231 174.464 497.331 175.036 497.531 175.516C497.731 175.996 498.007 176.364 498.359 176.62C498.711 176.876 499.119 177.004 499.583 177.004ZM506.748 173.608C506.372 173.608 506.032 173.524 505.728 173.356C505.432 173.188 505.196 172.952 505.02 172.648C504.844 172.336 504.756 171.964 504.756 171.532C504.756 171.108 504.844 170.744 505.02 170.44C505.196 170.128 505.436 169.888 505.74 169.72C506.044 169.552 506.384 169.468 506.76 169.468C507.128 169.468 507.46 169.552 507.756 169.72C508.06 169.888 508.3 170.128 508.476 170.44C508.652 170.744 508.74 171.108 508.74 171.532C508.74 171.964 508.652 172.336 508.476 172.648C508.3 172.952 508.06 173.188 507.756 173.356C507.46 173.524 507.124 173.608 506.748 173.608ZM506.148 178L510.96 169.6H512.208L507.408 178H506.148ZM506.748 172.696C507.004 172.696 507.224 172.6 507.408 172.408C507.6 172.208 507.696 171.916 507.696 171.532C507.696 171.148 507.604 170.86 507.42 170.668C507.236 170.468 507.012 170.368 506.748 170.368C506.492 170.368 506.268 170.468 506.076 170.668C505.884 170.86 505.788 171.148 505.788 171.532C505.788 171.916 505.88 172.208 506.064 172.408C506.256 172.6 506.484 172.696 506.748 172.696ZM511.68 178.144C511.304 178.144 510.964 178.06 510.66 177.892C510.364 177.724 510.128 177.488 509.952 177.184C509.776 176.872 509.688 176.5 509.688 176.068C509.688 175.644 509.776 175.276 509.952 174.964C510.128 174.652 510.368 174.412 510.672 174.244C510.976 174.076 511.316 173.992 511.692 173.992C512.06 173.992 512.392 174.076 512.688 174.244C512.992 174.412 513.232 174.652 513.408 174.964C513.584 175.276 513.672 175.644 513.672 176.068C513.672 176.5 513.584 176.872 513.408 177.184C513.232 177.488 512.992 177.724 512.688 177.892C512.392 178.06 512.056 178.144 511.68 178.144ZM511.68 177.22C511.936 177.22 512.156 177.124 512.34 176.932C512.532 176.74 512.628 176.452 512.628 176.068C512.628 175.684 512.536 175.396 512.352 175.204C512.168 175.004 511.944 174.904 511.68 174.904C511.424 174.904 511.2 175.004 511.008 175.204C510.816 175.396 510.72 175.684 510.72 176.068C510.72 176.452 510.812 176.74 510.996 176.932C511.188 177.124 511.416 177.22 511.68 177.22Z" fill="#FFA882"/>
<path d="M114.811 164.2C114.651 164.04 114.441 163.98 114.241 163.99H110.171C109.761 163.99 109.421 164.33 109.421 164.74C109.421 165.15 109.761 165.49 110.171 165.49H112.461L109.641 168.32C109.351 168.61 109.351 169.09 109.641 169.38C109.791 169.53 109.981 169.6 110.171 169.6C110.361 169.6 110.551 169.53 110.701 169.38L113.521 166.55V168.85C113.521 169.26 113.861 169.6 114.271 169.6C114.681 169.6 115.021 169.26 115.021 168.85V164.78C115.041 164.57 114.971 164.36 114.811 164.2ZM102.421 174.44V175.38C102.071 175.27 101.871 175.07 101.871 174.91C101.871 174.75 102.071 174.55 102.421 174.44ZM104.091 177.14C104.091 177.29 103.881 177.49 103.531 177.61V176.66C103.881 176.78 104.091 176.98 104.091 177.14Z" fill="#FFA882"/>
<path d="M102.981 168.07C98.6013 168.07 95.0312 171.64 95.0312 176.02C95.0312 180.41 98.6013 183.98 102.981 183.98C107.361 183.98 110.921 180.41 110.921 176.02C110.921 171.64 107.361 168.07 102.981 168.07ZM103.531 178.75V178.8C103.531 179.11 103.281 179.36 102.981 179.36C102.671 179.36 102.421 179.11 102.421 178.8V178.75C101.891 178.65 101.421 178.41 101.111 178.06C100.951 177.86 100.931 177.58 101.081 177.37C101.221 177.16 101.491 177.08 101.731 177.17L102.421 177.44V176.52C101.451 176.34 100.751 175.7 100.751 174.91C100.751 174.12 101.451 173.48 102.421 173.3V173.24C102.421 172.93 102.671 172.68 102.981 172.68C103.281 172.68 103.531 172.93 103.531 173.24V173.29C104.071 173.39 104.541 173.64 104.841 173.99C105.011 174.18 105.021 174.46 104.881 174.67C104.771 174.82 104.601 174.91 104.421 174.91C104.351 174.91 104.291 174.9 104.221 174.87L103.531 174.61V175.52C104.501 175.7 105.201 176.34 105.201 177.14C105.201 177.93 104.501 178.57 103.531 178.75ZM114.791 164.2C114.631 164.04 114.421 163.98 114.221 163.99H110.151C109.741 163.99 109.401 164.33 109.401 164.74C109.401 165.15 109.741 165.49 110.151 165.49H112.441L109.621 168.32C109.331 168.61 109.331 169.09 109.621 169.38C109.771 169.53 109.961 169.6 110.151 169.6C110.341 169.6 110.531 169.53 110.681 169.38L113.501 166.55V168.85C113.501 169.26 113.841 169.6 114.251 169.6C114.661 169.6 115.001 169.26 115.001 168.85V164.78C115.011 164.57 114.941 164.36 114.791 164.2Z" fill="#FFA882"/>
<path d="M104.06 177.14C104.06 177.29 103.85 177.49 103.5 177.61V176.66C103.85 176.78 104.06 176.98 104.06 177.14Z" fill="#FFA882"/>
<path d="M102.95 168.07C98.57 168.07 95 171.64 95 176.02C95 180.41 98.57 183.98 102.95 183.98C107.33 183.98 110.89 180.41 110.89 176.02C110.89 171.64 107.33 168.07 102.95 168.07ZM103.5 178.75V178.8C103.5 179.11 103.25 179.36 102.95 179.36C102.64 179.36 102.39 179.11 102.39 178.8V178.75C101.86 178.65 101.39 178.41 101.08 178.06C100.92 177.86 100.9 177.58 101.05 177.37C101.19 177.16 101.46 177.08 101.7 177.17L102.39 177.44V176.52C101.42 176.34 100.72 175.7 100.72 174.91C100.72 174.12 101.42 173.48 102.39 173.3V173.24C102.39 172.93 102.64 172.68 102.95 172.68C103.25 172.68 103.5 172.93 103.5 173.24V173.29C104.04 173.39 104.51 173.64 104.81 173.99C104.98 174.18 104.99 174.46 104.85 174.67C104.74 174.82 104.57 174.91 104.39 174.91C104.32 174.91 104.26 174.9 104.19 174.87L103.5 174.61V175.52C104.47 175.7 105.17 176.34 105.17 177.14C105.17 177.93 104.47 178.57 103.5 178.75Z" fill="#FFA882"/>
<path d="M134.424 179.016L131.4 167.8H133.224L135.448 177.08L138.008 167.8H139.88L142.36 177.08L144.584 167.8H146.408L143.336 179H141.352L138.904 170.216L136.376 179L134.424 179.016ZM150.784 179.192C150.027 179.192 149.344 179.021 148.736 178.68C148.139 178.328 147.664 177.843 147.312 177.224C146.96 176.595 146.784 175.864 146.784 175.032C146.784 174.2 146.96 173.475 147.312 172.856C147.675 172.227 148.16 171.741 148.768 171.4C149.376 171.048 150.053 170.872 150.8 170.872C151.557 170.872 152.235 171.048 152.832 171.4C153.44 171.741 153.92 172.227 154.272 172.856C154.635 173.475 154.816 174.2 154.816 175.032C154.816 175.864 154.635 176.595 154.272 177.224C153.92 177.843 153.44 178.328 152.832 178.68C152.224 179.021 151.541 179.192 150.784 179.192ZM150.784 177.736C151.189 177.736 151.563 177.635 151.904 177.432C152.256 177.229 152.539 176.931 152.752 176.536C152.965 176.131 153.072 175.629 153.072 175.032C153.072 174.435 152.965 173.939 152.752 173.544C152.549 173.139 152.272 172.835 151.92 172.632C151.579 172.429 151.205 172.328 150.8 172.328C150.395 172.328 150.016 172.429 149.664 172.632C149.323 172.835 149.045 173.139 148.832 173.544C148.619 173.939 148.512 174.435 148.512 175.032C148.512 175.629 148.619 176.131 148.832 176.536C149.045 176.931 149.323 177.229 149.664 177.432C150.005 177.635 150.379 177.736 150.784 177.736ZM156.65 179V171.064H158.17L158.314 172.568C158.591 172.045 158.975 171.635 159.466 171.336C159.967 171.027 160.57 170.872 161.274 170.872V172.648H160.81C160.341 172.648 159.919 172.728 159.546 172.888C159.183 173.037 158.89 173.299 158.666 173.672C158.453 174.035 158.346 174.541 158.346 175.192V179H156.65ZM165.896 179.192C164.894 179.192 164.067 178.947 163.416 178.456C162.766 177.965 162.392 177.315 162.296 176.504H164.008C164.094 176.867 164.296 177.181 164.616 177.448C164.936 177.704 165.358 177.832 165.88 177.832C166.392 177.832 166.766 177.725 167 177.512C167.235 177.299 167.352 177.053 167.352 176.776C167.352 176.371 167.187 176.099 166.856 175.96C166.536 175.811 166.088 175.677 165.512 175.56C165.064 175.464 164.616 175.336 164.168 175.176C163.731 175.016 163.363 174.792 163.064 174.504C162.776 174.205 162.632 173.805 162.632 173.304C162.632 172.611 162.899 172.035 163.432 171.576C163.966 171.107 164.712 170.872 165.672 170.872C166.558 170.872 167.272 171.085 167.816 171.512C168.371 171.939 168.696 172.541 168.792 173.32H167.16C167.107 172.979 166.947 172.712 166.68 172.52C166.424 172.328 166.078 172.232 165.64 172.232C165.214 172.232 164.883 172.323 164.648 172.504C164.414 172.675 164.296 172.899 164.296 173.176C164.296 173.453 164.456 173.672 164.776 173.832C165.107 173.992 165.539 174.136 166.072 174.264C166.606 174.381 167.096 174.52 167.544 174.68C168.003 174.829 168.371 175.053 168.648 175.352C168.926 175.651 169.064 176.088 169.064 176.664C169.075 177.389 168.792 177.992 168.216 178.472C167.651 178.952 166.878 179.192 165.896 179.192ZM173.947 179C173.168 179 172.55 178.813 172.091 178.44C171.632 178.056 171.403 177.379 171.403 176.408V172.488H170.043V171.064H171.403L171.611 169.048H173.099V171.064H175.339V172.488H173.099V176.408C173.099 176.845 173.19 177.149 173.371 177.32C173.563 177.48 173.888 177.56 174.347 177.56H175.259V179H173.947ZM184.879 179.192C184.058 179.192 183.338 179.048 182.719 178.76C182.1 178.472 181.615 178.061 181.263 177.528C180.922 176.995 180.746 176.36 180.735 175.624H182.527C182.538 176.221 182.746 176.728 183.151 177.144C183.556 177.56 184.127 177.768 184.863 177.768C185.514 177.768 186.02 177.613 186.383 177.304C186.756 176.984 186.943 176.579 186.943 176.088C186.943 175.693 186.852 175.373 186.671 175.128C186.5 174.883 186.26 174.68 185.951 174.52C185.652 174.36 185.306 174.216 184.911 174.088C184.516 173.96 184.1 173.821 183.663 173.672C182.799 173.384 182.148 173.011 181.711 172.552C181.284 172.093 181.071 171.491 181.071 170.744C181.06 170.115 181.204 169.565 181.503 169.096C181.812 168.627 182.239 168.264 182.783 168.008C183.338 167.741 183.983 167.608 184.719 167.608C185.444 167.608 186.079 167.741 186.623 168.008C187.178 168.275 187.61 168.648 187.919 169.128C188.228 169.597 188.388 170.147 188.399 170.776H186.607C186.607 170.488 186.532 170.216 186.383 169.96C186.234 169.693 186.015 169.475 185.727 169.304C185.439 169.133 185.087 169.048 184.671 169.048C184.138 169.037 183.695 169.171 183.343 169.448C183.002 169.725 182.831 170.109 182.831 170.6C182.831 171.037 182.959 171.373 183.215 171.608C183.471 171.843 183.823 172.04 184.271 172.2C184.719 172.349 185.231 172.525 185.807 172.728C186.362 172.909 186.858 173.128 187.295 173.384C187.732 173.64 188.079 173.976 188.335 174.392C188.602 174.808 188.735 175.336 188.735 175.976C188.735 176.541 188.591 177.069 188.303 177.56C188.015 178.04 187.583 178.435 187.007 178.744C186.431 179.043 185.722 179.192 184.879 179.192ZM194.237 179.192C193.458 179.192 192.765 179.021 192.157 178.68C191.56 178.328 191.09 177.843 190.749 177.224C190.408 176.605 190.237 175.885 190.237 175.064C190.237 174.232 190.402 173.501 190.733 172.872C191.074 172.243 191.544 171.752 192.141 171.4C192.749 171.048 193.453 170.872 194.253 170.872C195.032 170.872 195.709 171.048 196.285 171.4C196.861 171.741 197.309 172.2 197.629 172.776C197.949 173.352 198.109 173.987 198.109 174.68C198.109 174.787 198.104 174.904 198.093 175.032C198.093 175.149 198.088 175.283 198.077 175.432H191.901C191.954 176.2 192.205 176.787 192.653 177.192C193.112 177.587 193.64 177.784 194.237 177.784C194.717 177.784 195.117 177.677 195.437 177.464C195.768 177.24 196.013 176.941 196.173 176.568H197.869C197.656 177.315 197.229 177.939 196.589 178.44C195.96 178.941 195.176 179.192 194.237 179.192ZM194.237 172.264C193.672 172.264 193.17 172.435 192.733 172.776C192.296 173.107 192.029 173.608 191.933 174.28H196.413C196.381 173.661 196.162 173.171 195.757 172.808C195.352 172.445 194.845 172.264 194.237 172.264ZM199.869 179V167.48H201.565V179H199.869ZM203.713 179V167.48H205.409V179H203.713ZM208.516 169.56C208.196 169.56 207.93 169.464 207.716 169.272C207.514 169.069 207.412 168.819 207.412 168.52C207.412 168.221 207.514 167.976 207.716 167.784C207.93 167.581 208.196 167.48 208.516 167.48C208.836 167.48 209.098 167.581 209.3 167.784C209.514 167.976 209.62 168.221 209.62 168.52C209.62 168.819 209.514 169.069 209.3 169.272C209.098 169.464 208.836 169.56 208.516 169.56ZM207.668 179V171.064H209.364V179H207.668ZM211.603 179V171.064H213.107L213.235 172.456C213.481 171.965 213.838 171.581 214.307 171.304C214.787 171.016 215.337 170.872 215.955 170.872C216.915 170.872 217.667 171.171 218.211 171.768C218.766 172.365 219.043 173.256 219.043 174.44V179H217.363V174.616C217.363 173.08 216.734 172.312 215.475 172.312C214.846 172.312 214.323 172.536 213.907 172.984C213.502 173.432 213.299 174.072 213.299 174.904V179H211.603ZM224.289 176.568C223.873 176.568 223.489 176.52 223.137 176.424L222.449 177.096C222.566 177.171 222.71 177.235 222.881 177.288C223.051 177.341 223.291 177.389 223.601 177.432C223.91 177.475 224.331 177.517 224.865 177.56C225.921 177.656 226.683 177.912 227.153 178.328C227.622 178.733 227.857 179.277 227.857 179.96C227.857 180.429 227.729 180.872 227.473 181.288C227.227 181.715 226.838 182.056 226.305 182.312C225.782 182.579 225.11 182.712 224.289 182.712C223.179 182.712 222.278 182.499 221.585 182.072C220.902 181.656 220.561 181.021 220.561 180.168C220.561 179.837 220.646 179.507 220.817 179.176C220.998 178.856 221.281 178.552 221.665 178.264C221.441 178.168 221.243 178.067 221.073 177.96C220.913 177.843 220.769 177.725 220.641 177.608V177.224L222.017 175.816C221.398 175.283 221.089 174.584 221.089 173.72C221.089 173.197 221.211 172.723 221.457 172.296C221.713 171.859 222.081 171.512 222.561 171.256C223.041 171 223.617 170.872 224.289 170.872C224.737 170.872 225.153 170.936 225.537 171.064H228.497V172.184L227.089 172.264C227.345 172.701 227.473 173.187 227.473 173.72C227.473 174.253 227.345 174.733 227.089 175.16C226.843 175.587 226.481 175.928 226.001 176.184C225.531 176.44 224.961 176.568 224.289 176.568ZM224.289 175.24C224.779 175.24 225.174 175.112 225.473 174.856C225.782 174.589 225.937 174.216 225.937 173.736C225.937 173.245 225.782 172.872 225.473 172.616C225.174 172.36 224.779 172.232 224.289 172.232C223.787 172.232 223.382 172.36 223.073 172.616C222.774 172.872 222.625 173.245 222.625 173.736C222.625 174.216 222.774 174.589 223.073 174.856C223.382 175.112 223.787 175.24 224.289 175.24ZM222.161 180.008C222.161 180.467 222.363 180.808 222.769 181.032C223.174 181.267 223.681 181.384 224.289 181.384C224.875 181.384 225.35 181.256 225.713 181C226.075 180.755 226.257 180.424 226.257 180.008C226.257 179.699 226.134 179.432 225.889 179.208C225.643 178.995 225.179 178.861 224.497 178.808C223.985 178.776 223.531 178.728 223.137 178.664C222.763 178.867 222.507 179.085 222.369 179.32C222.23 179.555 222.161 179.784 222.161 180.008Z" fill="#003A30"/>
<path d="M397.223 180.392V179.16C396.177 179.043 395.34 178.675 394.711 178.056C394.081 177.437 393.761 176.627 393.751 175.624H395.543C395.553 176.125 395.703 176.568 395.991 176.952C396.279 177.325 396.689 177.576 397.223 177.704V173.848C397.137 173.827 397.047 173.8 396.951 173.768C396.865 173.736 396.775 173.704 396.679 173.672C395.815 173.384 395.164 173.011 394.727 172.552C394.3 172.093 394.087 171.491 394.087 170.744C394.076 169.869 394.359 169.155 394.935 168.6C395.511 168.045 396.273 167.72 397.223 167.624V166.344H398.311V167.64C399.239 167.747 399.985 168.083 400.551 168.648C401.116 169.213 401.404 169.923 401.415 170.776H399.623C399.612 170.424 399.495 170.093 399.271 169.784C399.057 169.464 398.737 169.245 398.311 169.128V172.552C398.396 172.584 398.481 172.616 398.567 172.648C398.652 172.669 398.737 172.696 398.823 172.728C399.377 172.909 399.873 173.128 400.311 173.384C400.748 173.64 401.095 173.976 401.351 174.392C401.617 174.808 401.751 175.336 401.751 175.976C401.751 176.509 401.623 177.011 401.367 177.48C401.111 177.939 400.727 178.323 400.215 178.632C399.703 178.941 399.068 179.123 398.311 179.176V180.392H397.223ZM395.847 170.6C395.847 171.027 395.969 171.357 396.215 171.592C396.46 171.816 396.796 172.013 397.223 172.184V169.08C396.817 169.155 396.487 169.325 396.231 169.592C395.975 169.848 395.847 170.184 395.847 170.6ZM399.959 176.088C399.959 175.565 399.804 175.171 399.495 174.904C399.185 174.627 398.791 174.397 398.311 174.216V177.736C398.833 177.672 399.239 177.491 399.527 177.192C399.815 176.893 399.959 176.525 399.959 176.088ZM411.54 179.192C410.751 179.192 410.068 179.053 409.492 178.776C408.916 178.488 408.457 178.099 408.116 177.608C407.785 177.107 407.583 176.541 407.508 175.912H409.172C409.279 176.445 409.545 176.888 409.972 177.24C410.399 177.581 410.927 177.752 411.556 177.752C412.025 177.752 412.431 177.64 412.772 177.416C413.113 177.181 413.38 176.872 413.572 176.488C413.764 176.104 413.86 175.672 413.86 175.192C413.86 174.435 413.647 173.832 413.22 173.384C412.793 172.925 412.255 172.696 411.604 172.696C411.049 172.696 410.575 172.829 410.18 173.096C409.785 173.352 409.497 173.677 409.316 174.072H407.7L408.66 167.8H414.708V169.288H409.94L409.364 172.28C409.609 172.003 409.945 171.773 410.372 171.592C410.809 171.4 411.3 171.304 411.844 171.304C412.601 171.304 413.252 171.48 413.796 171.832C414.34 172.173 414.756 172.637 415.044 173.224C415.343 173.811 415.492 174.461 415.492 175.176C415.492 175.923 415.332 176.6 415.012 177.208C414.692 177.816 414.233 178.301 413.636 178.664C413.049 179.016 412.351 179.192 411.54 179.192ZM416.487 180.888L417.415 177.112H419.095L417.623 180.888H416.487ZM424.345 179.192C423.62 179.192 422.958 179.064 422.361 178.808C421.774 178.541 421.305 178.141 420.953 177.608C420.601 177.075 420.414 176.408 420.393 175.608H422.073C422.094 176.205 422.297 176.712 422.681 177.128C423.076 177.533 423.63 177.736 424.345 177.736C425.028 177.736 425.55 177.549 425.913 177.176C426.276 176.792 426.457 176.317 426.457 175.752C426.457 175.069 426.212 174.563 425.721 174.232C425.241 173.901 424.649 173.736 423.945 173.736H423.113V172.328H423.961C424.59 172.328 425.097 172.179 425.481 171.88C425.876 171.581 426.073 171.16 426.073 170.616C426.073 170.157 425.918 169.784 425.609 169.496C425.31 169.208 424.884 169.064 424.329 169.064C423.753 169.064 423.3 169.235 422.969 169.576C422.638 169.907 422.457 170.323 422.425 170.824H420.745C420.766 170.173 420.926 169.608 421.225 169.128C421.534 168.648 421.956 168.275 422.489 168.008C423.022 167.741 423.636 167.608 424.329 167.608C425.076 167.608 425.7 167.741 426.201 168.008C426.713 168.264 427.097 168.616 427.353 169.064C427.62 169.501 427.753 169.981 427.753 170.504C427.753 171.101 427.588 171.624 427.257 172.072C426.926 172.52 426.484 172.819 425.929 172.968C426.569 173.107 427.097 173.421 427.513 173.912C427.929 174.392 428.137 175.016 428.137 175.784C428.137 176.403 427.993 176.973 427.705 177.496C427.417 178.008 426.99 178.419 426.425 178.728C425.86 179.037 425.166 179.192 424.345 179.192ZM434.342 179.192C433.52 179.192 432.827 179.037 432.262 178.728C431.696 178.419 431.238 178.008 430.886 177.496C430.544 176.984 430.299 176.408 430.15 175.768C430 175.128 429.926 174.472 429.926 173.8C429.926 172.563 430.096 171.48 430.438 170.552C430.79 169.624 431.291 168.904 431.942 168.392C432.592 167.869 433.382 167.608 434.31 167.608C435.046 167.608 435.675 167.752 436.198 168.04C436.72 168.328 437.126 168.712 437.414 169.192C437.712 169.672 437.894 170.195 437.958 170.76H436.374C436.278 170.205 436.048 169.779 435.686 169.48C435.323 169.181 434.859 169.032 434.294 169.032C433.515 169.032 432.87 169.4 432.358 170.136C431.856 170.861 431.59 171.981 431.558 173.496C431.814 173.027 432.208 172.627 432.742 172.296C433.286 171.965 433.91 171.8 434.614 171.8C435.243 171.8 435.83 171.949 436.374 172.248C436.928 172.547 437.376 172.968 437.718 173.512C438.07 174.045 438.246 174.68 438.246 175.416C438.246 176.067 438.086 176.68 437.766 177.256C437.446 177.832 436.992 178.301 436.406 178.664C435.83 179.016 435.142 179.192 434.342 179.192ZM434.246 177.72C434.694 177.72 435.094 177.624 435.446 177.432C435.798 177.24 436.075 176.979 436.278 176.648C436.48 176.307 436.582 175.923 436.582 175.496C436.582 174.813 436.358 174.269 435.91 173.864C435.472 173.459 434.912 173.256 434.23 173.256C433.782 173.256 433.376 173.357 433.014 173.56C432.662 173.763 432.384 174.035 432.182 174.376C431.979 174.707 431.878 175.075 431.878 175.48C431.878 175.917 431.979 176.307 432.182 176.648C432.395 176.979 432.678 177.24 433.03 177.432C433.392 177.624 433.798 177.72 434.246 177.72ZM443.787 179.192C443.051 179.192 442.421 179.048 441.899 178.76C441.376 178.472 440.965 178.088 440.667 177.608C440.379 177.128 440.203 176.605 440.139 176.04H441.723C441.819 176.595 442.048 177.021 442.411 177.32C442.773 177.619 443.237 177.768 443.803 177.768C444.581 177.768 445.221 177.405 445.723 176.68C446.235 175.944 446.507 174.819 446.539 173.304C446.283 173.773 445.883 174.173 445.339 174.504C444.805 174.835 444.187 175 443.483 175C442.853 175 442.261 174.851 441.707 174.552C441.152 174.253 440.704 173.837 440.363 173.304C440.021 172.76 439.851 172.12 439.851 171.384C439.851 170.733 440.011 170.12 440.331 169.544C440.651 168.968 441.099 168.504 441.675 168.152C442.261 167.789 442.955 167.608 443.755 167.608C444.576 167.608 445.269 167.763 445.835 168.072C446.4 168.381 446.853 168.792 447.195 169.304C447.536 169.816 447.781 170.392 447.931 171.032C448.091 171.672 448.171 172.328 448.171 173C448.171 174.237 447.995 175.32 447.643 176.248C447.301 177.176 446.805 177.901 446.155 178.424C445.504 178.936 444.715 179.192 443.787 179.192ZM443.867 173.544C444.315 173.544 444.715 173.443 445.067 173.24C445.419 173.037 445.696 172.771 445.899 172.44C446.112 172.099 446.219 171.725 446.219 171.32C446.219 170.883 446.112 170.499 445.899 170.168C445.696 169.827 445.413 169.56 445.051 169.368C444.699 169.176 444.299 169.08 443.851 169.08C443.403 169.08 443.003 169.176 442.651 169.368C442.299 169.56 442.016 169.827 441.803 170.168C441.6 170.499 441.499 170.877 441.499 171.304C441.499 171.987 441.723 172.531 442.171 172.936C442.619 173.341 443.184 173.544 443.867 173.544Z" fill="#003A30"/>
<g filter="url(#filter2_d_151_203)">
<rect x="73" y="220" width="464" height="256" rx="12" fill="white"/>
</g>
<line x1="101.5" y1="437.5" x2="419.5" y2="437.5" stroke="#EDEDED" stroke-linecap="round" stroke-dasharray="5 5"/>
<line x1="101.5" y1="397.5" x2="419.5" y2="397.5" stroke="#EDEDED" stroke-linecap="round" stroke-dasharray="5 5"/>
<line x1="101.5" y1="357.5" x2="419.5" y2="357.5" stroke="#EDEDED" stroke-linecap="round" stroke-dasharray="5 5"/>
<line x1="101.5" y1="317.5" x2="419.5" y2="317.5" stroke="#EDEDED" stroke-linecap="round" stroke-dasharray="5 5"/>
<rect x="119" y="358" width="8" height="80" rx="4" fill="#FFCB66"/>
<rect x="132" y="376" width="8" height="62" rx="4" fill="#80D9AD"/>
<rect x="160" y="346" width="8" height="92" rx="4" fill="#80D9AD"/>
<rect x="173" y="330" width="8" height="108" rx="4" fill="#FFCB66"/>
<rect x="201" y="341" width="8" height="97" rx="4" fill="#80D9AD"/>
<rect x="214" y="346" width="8" height="92" rx="4" fill="#FFCB66"/>
<rect x="242" y="366" width="8" height="72" rx="4" fill="#80D9AD"/>
<rect x="255" y="348" width="8" height="90" rx="4" fill="#FFCB66"/>
<rect x="283" y="318" width="8" height="120" rx="4" fill="#80D9AD"/>
<rect x="296" y="332" width="8" height="106" rx="4" fill="#FFCB66"/>
<rect x="324" y="388" width="8" height="50" rx="4" fill="#80D9AD"/>
<rect x="337" y="350" width="8" height="88" rx="4" fill="#FFCB66"/>
<rect x="365" y="370" width="8" height="68" rx="4" fill="#80D9AD"/>
<rect x="378" y="364" width="8" height="74" rx="4" fill="#FFCB66"/>
<path d="M104.76 262V252.176H101.448V250.8H109.752V252.176H106.456V262H104.76ZM113.55 262.192C112.792 262.192 112.11 262.021 111.502 261.68C110.904 261.328 110.43 260.843 110.078 260.224C109.726 259.595 109.55 258.864 109.55 258.032C109.55 257.2 109.726 256.475 110.078 255.856C110.44 255.227 110.926 254.741 111.534 254.4C112.142 254.048 112.819 253.872 113.566 253.872C114.323 253.872 115 254.048 115.598 254.4C116.206 254.741 116.686 255.227 117.038 255.856C117.4 256.475 117.582 257.2 117.582 258.032C117.582 258.864 117.4 259.595 117.038 260.224C116.686 260.843 116.206 261.328 115.598 261.68C114.99 262.021 114.307 262.192 113.55 262.192ZM113.55 260.736C113.955 260.736 114.328 260.635 114.67 260.432C115.022 260.229 115.304 259.931 115.518 259.536C115.731 259.131 115.838 258.629 115.838 258.032C115.838 257.435 115.731 256.939 115.518 256.544C115.315 256.139 115.038 255.835 114.686 255.632C114.344 255.429 113.971 255.328 113.566 255.328C113.16 255.328 112.782 255.429 112.43 255.632C112.088 255.835 111.811 256.139 111.598 256.544C111.384 256.939 111.278 257.435 111.278 258.032C111.278 258.629 111.384 259.131 111.598 259.536C111.811 259.931 112.088 260.229 112.43 260.432C112.771 260.635 113.144 260.736 113.55 260.736ZM122.431 262C121.653 262 121.034 261.813 120.575 261.44C120.117 261.056 119.887 260.379 119.887 259.408V255.488H118.527V254.064H119.887L120.095 252.048H121.583V254.064H123.823V255.488H121.583V259.408C121.583 259.845 121.674 260.149 121.855 260.32C122.047 260.48 122.373 260.56 122.831 260.56H123.743V262H122.431ZM128.26 262.192C127.588 262.192 127.033 262.08 126.596 261.856C126.159 261.632 125.833 261.339 125.62 260.976C125.407 260.603 125.3 260.197 125.3 259.76C125.3 258.992 125.599 258.384 126.196 257.936C126.793 257.488 127.647 257.264 128.756 257.264H130.836V257.12C130.836 256.501 130.665 256.037 130.324 255.728C129.993 255.419 129.561 255.264 129.028 255.264C128.559 255.264 128.148 255.381 127.796 255.616C127.455 255.84 127.247 256.176 127.172 256.624H125.476C125.529 256.048 125.721 255.557 126.052 255.152C126.393 254.736 126.82 254.421 127.332 254.208C127.855 253.984 128.425 253.872 129.044 253.872C130.153 253.872 131.012 254.165 131.62 254.752C132.228 255.328 132.532 256.117 132.532 257.12V262H131.06L130.916 260.64C130.692 261.077 130.367 261.445 129.94 261.744C129.513 262.043 128.953 262.192 128.26 262.192ZM128.596 260.816C129.055 260.816 129.439 260.709 129.748 260.496C130.068 260.272 130.313 259.979 130.484 259.616C130.665 259.253 130.777 258.853 130.82 258.416H128.932C128.26 258.416 127.78 258.533 127.492 258.768C127.215 259.003 127.076 259.296 127.076 259.648C127.076 260.011 127.209 260.299 127.476 260.512C127.753 260.715 128.127 260.816 128.596 260.816ZM134.51 262V250.48H136.206V262H134.51ZM147.313 262.192C146.257 262.192 145.334 261.952 144.545 261.472C143.755 260.992 143.142 260.32 142.705 259.456C142.267 258.592 142.049 257.584 142.049 256.432C142.049 255.291 142.273 254.283 142.721 253.408C143.169 252.533 143.803 251.851 144.625 251.36C145.457 250.859 146.438 250.608 147.569 250.608C148.849 250.608 149.915 250.917 150.769 251.536C151.622 252.155 152.177 253.008 152.433 254.096H150.513C150.342 253.499 150.006 253.029 149.505 252.688C149.003 252.347 148.358 252.176 147.569 252.176C146.395 252.176 145.473 252.555 144.801 253.312C144.129 254.069 143.793 255.115 143.793 256.448C143.793 257.781 144.123 258.821 144.785 259.568C145.446 260.315 146.326 260.688 147.425 260.688C148.534 260.688 149.366 260.373 149.921 259.744C150.486 259.115 150.817 258.277 150.913 257.232H147.873V255.92H152.625V262H151.073L150.929 260.352C150.555 260.939 150.086 261.392 149.521 261.712C148.955 262.032 148.219 262.192 147.313 262.192ZM154.619 262V254.064H156.139L156.283 255.568C156.56 255.045 156.944 254.635 157.435 254.336C157.936 254.027 158.539 253.872 159.243 253.872V255.648H158.779C158.31 255.648 157.888 255.728 157.515 255.888C157.152 256.037 156.859 256.299 156.635 256.672C156.422 257.035 156.315 257.541 156.315 258.192V262H154.619ZM164.19 262.192C163.433 262.192 162.75 262.021 162.142 261.68C161.545 261.328 161.07 260.843 160.718 260.224C160.366 259.595 160.19 258.864 160.19 258.032C160.19 257.2 160.366 256.475 160.718 255.856C161.081 255.227 161.566 254.741 162.174 254.4C162.782 254.048 163.46 253.872 164.206 253.872C164.964 253.872 165.641 254.048 166.238 254.4C166.846 254.741 167.326 255.227 167.678 255.856C168.041 256.475 168.222 257.2 168.222 258.032C168.222 258.864 168.041 259.595 167.678 260.224C167.326 260.843 166.846 261.328 166.238 261.68C165.63 262.021 164.948 262.192 164.19 262.192ZM164.19 260.736C164.596 260.736 164.969 260.635 165.31 260.432C165.662 260.229 165.945 259.931 166.158 259.536C166.372 259.131 166.478 258.629 166.478 258.032C166.478 257.435 166.372 256.939 166.158 256.544C165.956 256.139 165.678 255.835 165.326 255.632C164.985 255.429 164.612 255.328 164.206 255.328C163.801 255.328 163.422 255.429 163.07 255.632C162.729 255.835 162.452 256.139 162.238 256.544C162.025 256.939 161.918 257.435 161.918 258.032C161.918 258.629 162.025 259.131 162.238 259.536C162.452 259.931 162.729 260.229 163.07 260.432C163.412 260.635 163.785 260.736 164.19 260.736ZM171.344 262L169.008 254.064H170.704L172.24 260.048L173.968 254.064H175.856L177.584 260.048L179.12 254.064H180.816L178.48 262H176.736L174.912 255.76L173.088 262H171.344ZM185.541 262C184.762 262 184.143 261.813 183.685 261.44C183.226 261.056 182.997 260.379 182.997 259.408V255.488H181.637V254.064H182.997L183.205 252.048H184.693V254.064H186.933V255.488H184.693V259.408C184.693 259.845 184.783 260.149 184.965 260.32C185.157 260.48 185.482 260.56 185.941 260.56H186.853V262H185.541ZM188.681 262V250.48H190.377V255.344C190.644 254.885 191.012 254.528 191.481 254.272C191.961 254.005 192.489 253.872 193.065 253.872C194.015 253.872 194.761 254.171 195.305 254.768C195.849 255.365 196.121 256.256 196.121 257.44V262H194.441V257.616C194.441 256.08 193.828 255.312 192.601 255.312C191.961 255.312 191.428 255.536 191.001 255.984C190.585 256.432 190.377 257.072 190.377 257.904V262H188.681Z" fill="#003A30"/>
<path d="M466.816 364V362.512C467.499 361.947 468.16 361.387 468.8 360.832C469.451 360.277 470.027 359.728 470.528 359.184C471.04 358.64 471.445 358.112 471.744 357.6C472.053 357.077 472.208 356.571 472.208 356.08C472.208 355.621 472.08 355.216 471.824 354.864C471.579 354.512 471.168 354.336 470.592 354.336C470.005 354.336 469.563 354.528 469.264 354.912C468.965 355.296 468.816 355.76 468.816 356.304H466.832C466.853 355.483 467.035 354.8 467.376 354.256C467.717 353.701 468.171 353.291 468.736 353.024C469.301 352.747 469.936 352.608 470.64 352.608C471.781 352.608 472.667 352.923 473.296 353.552C473.936 354.171 474.256 354.976 474.256 355.968C474.256 356.587 474.112 357.189 473.824 357.776C473.547 358.363 473.179 358.928 472.72 359.472C472.261 360.016 471.765 360.528 471.232 361.008C470.699 361.477 470.181 361.915 469.68 362.32H474.528V364H466.816ZM480.245 364.192C479.423 364.192 478.714 364.048 478.117 363.76C477.53 363.472 477.066 363.077 476.725 362.576C476.394 362.064 476.202 361.488 476.149 360.848H478.149C478.245 361.307 478.479 361.691 478.853 362C479.226 362.299 479.69 362.448 480.245 362.448C480.842 362.448 481.327 362.229 481.701 361.792C482.085 361.355 482.277 360.811 482.277 360.16C482.277 359.488 482.085 358.955 481.701 358.56C481.327 358.165 480.853 357.968 480.277 357.968C479.797 357.968 479.381 358.085 479.029 358.32C478.677 358.555 478.426 358.848 478.277 359.2H476.309L477.269 352.8H483.477V354.592H478.805L478.293 357.184C478.527 356.928 478.847 356.72 479.253 356.56C479.658 356.389 480.111 356.304 480.613 356.304C481.413 356.304 482.079 356.485 482.613 356.848C483.146 357.2 483.551 357.669 483.829 358.256C484.106 358.832 484.245 359.461 484.245 360.144C484.245 360.923 484.074 361.616 483.733 362.224C483.402 362.832 482.933 363.312 482.325 363.664C481.727 364.016 481.034 364.192 480.245 364.192ZM485.287 365.856L486.199 361.872H488.183L486.631 365.856H485.287ZM493.518 364.192C492.782 364.192 492.115 364.064 491.518 363.808C490.92 363.541 490.44 363.136 490.078 362.592C489.715 362.048 489.523 361.365 489.502 360.544H491.518C491.528 361.088 491.704 361.547 492.046 361.92C492.398 362.283 492.888 362.464 493.518 362.464C494.115 362.464 494.574 362.299 494.894 361.968C495.214 361.637 495.374 361.221 495.374 360.72C495.374 360.133 495.16 359.691 494.734 359.392C494.318 359.083 493.779 358.928 493.118 358.928H492.286V357.248H493.134C493.678 357.248 494.131 357.12 494.494 356.864C494.856 356.608 495.038 356.229 495.038 355.728C495.038 355.312 494.899 354.981 494.622 354.736C494.355 354.48 493.982 354.352 493.502 354.352C492.979 354.352 492.568 354.507 492.27 354.816C491.982 355.125 491.822 355.504 491.79 355.952H489.79C489.832 354.917 490.19 354.101 490.862 353.504C491.544 352.907 492.424 352.608 493.502 352.608C494.27 352.608 494.915 352.747 495.438 353.024C495.971 353.291 496.371 353.648 496.638 354.096C496.915 354.544 497.054 355.04 497.054 355.584C497.054 356.213 496.878 356.747 496.526 357.184C496.184 357.611 495.758 357.899 495.246 358.048C495.875 358.176 496.387 358.485 496.782 358.976C497.176 359.456 497.374 360.064 497.374 360.8C497.374 361.419 497.224 361.984 496.926 362.496C496.627 363.008 496.19 363.419 495.614 363.728C495.048 364.037 494.35 364.192 493.518 364.192ZM499.385 364V352.8H501.433V357.328L505.577 352.8H508.105L503.977 357.248L508.217 364H505.705L502.505 358.816L501.433 359.984V364H499.385Z" fill="#003A30"/>
<rect x="466" y="342" width="19" height="4" rx="2" fill="#FFA882"/>
<rect x="466" y="388" width="19" height="4" rx="2" fill="#80D9AD"/>
<path d="M466.896 406.224V404.512H469.904V401.744H471.648V404.512H474.64V406.224H471.648V408.992H469.904V406.224H466.896ZM477.851 410V401.136L476.011 401.568V400L478.715 398.8H479.979V410H477.851ZM481.879 410V408.512C482.561 407.947 483.223 407.387 483.863 406.832C484.513 406.277 485.089 405.728 485.591 405.184C486.103 404.64 486.508 404.112 486.807 403.6C487.116 403.077 487.271 402.571 487.271 402.08C487.271 401.621 487.143 401.216 486.887 400.864C486.641 400.512 486.231 400.336 485.655 400.336C485.068 400.336 484.625 400.528 484.327 400.912C484.028 401.296 483.879 401.76 483.879 402.304H481.895C481.916 401.483 482.097 400.8 482.439 400.256C482.78 399.701 483.233 399.291 483.799 399.024C484.364 398.747 484.999 398.608 485.703 398.608C486.844 398.608 487.729 398.923 488.359 399.552C488.999 400.171 489.319 400.976 489.319 401.968C489.319 402.587 489.175 403.189 488.887 403.776C488.609 404.363 488.241 404.928 487.783 405.472C487.324 406.016 486.828 406.528 486.295 407.008C485.761 407.477 485.244 407.915 484.743 408.32H489.591V410H481.879ZM495.805 410.192C494.77 410.192 493.885 409.952 493.149 409.472C492.413 408.981 491.842 408.304 491.437 407.44C491.042 406.565 490.845 405.552 490.845 404.4C490.845 403.259 491.042 402.251 491.437 401.376C491.842 400.501 492.413 399.824 493.149 399.344C493.885 398.853 494.77 398.608 495.805 398.608C496.84 398.608 497.725 398.853 498.461 399.344C499.197 399.824 499.762 400.501 500.157 401.376C500.562 402.251 500.765 403.259 500.765 404.4C500.765 405.552 500.562 406.565 500.157 407.44C499.762 408.304 499.197 408.981 498.461 409.472C497.725 409.952 496.84 410.192 495.805 410.192ZM495.805 408.352C496.648 408.352 497.336 408 497.869 407.296C498.402 406.592 498.669 405.627 498.669 404.4C498.669 403.173 498.402 402.208 497.869 401.504C497.336 400.8 496.648 400.448 495.805 400.448C494.952 400.448 494.258 400.8 493.725 401.504C493.202 402.208 492.941 403.173 492.941 404.4C492.941 405.627 493.202 406.592 493.725 407.296C494.258 408 494.952 408.352 495.805 408.352Z" fill="#003A30"/>
<circle cx="505" cy="257" r="2" fill="#E4E4E4"/>
<circle cx="497" cy="257" r="2" fill="#E4E4E4"/>
<circle cx="489" cy="257" r="2" fill="#E4E4E4"/>
<defs>
<filter id="filter0_d_151_203" x="57" y="64" width="496" height="88" filterUnits="userSpaceOnUse" color-interpolation-filters="sRGB">
<feFlood flood-opacity="0" result="BackgroundImageFix"/>
<feColorMatrix in="SourceAlpha" type="matrix" values="0 0 0 0 0 0 0 0 0 0 0 0 0 0 0 0 0 0 127 0" result="hardAlpha"/>
<feOffset dy="8"/>
<feGaussianBlur stdDeviation="8"/>
<feComposite in2="hardAlpha" operator="out"/>
<feColorMatrix type="matrix" values="0 0 0 0 0.633218 0 0 0 0 0.422584 0 0 0 0 0.33833 0 0 0 0.04 0"/>
<feBlend mode="normal" in2="BackgroundImageFix" result="effect1_dropShadow_151_203"/>
<feBlend mode="normal" in="SourceGraphic" in2="effect1_dropShadow_151_203" result="shape"/>
</filter>
<filter id="filter1_d_151_203" x="57" y="138" width="496" height="88" filterUnits="userSpaceOnUse" color-interpolation-filters="sRGB">
<feFlood flood-opacity="0" result="BackgroundImageFix"/>
<feColorMatrix in="SourceAlpha" type="matrix" values="0 0 0 0 0 0 0 0 0 0 0 0 0 0 0 0 0 0 127 0" result="hardAlpha"/>
<feOffset dy="8"/>
<feGaussianBlur stdDeviation="8"/>
<feComposite in2="hardAlpha" operator="out"/>
<feColorMatrix type="matrix" values="0 0 0 0 0.633218 0 0 0 0 0.422584 0 0 0 0 0.33833 0 0 0 0.04 0"/>
<feBlend mode="normal" in2="BackgroundImageFix" result="effect1_dropShadow_151_203"/>
<feBlend mode="normal" in="SourceGraphic" in2="effect1_dropShadow_151_203" result="shape"/>
</filter>
<filter id="filter2_d_151_203" x="37" y="192" width="536" height="328" filterUnits="userSpaceOnUse" color-interpolation-filters="sRGB">
<feFlood flood-opacity="0" result="BackgroundImageFix"/>
<feColorMatrix in="SourceAlpha" type="matrix" values="0 0 0 0 0 0 0 0 0 0 0 0 0 0 0 0 0 0 127 0" result="hardAlpha"/>
<feOffset dy="8"/>
<feGaussianBlur stdDeviation="18"/>
<feComposite in2="hardAlpha" operator="out"/>
<feColorMatrix type="matrix" values="0 0 0 0 0.733218 0 0 0 0 0.419489 0 0 0 0 0.293998 0 0 0 0.06 0"/>
<feBlend mode="normal" in2="BackgroundImageFix" result="effect1_dropShadow_151_203"/>
<feBlend mode="normal" in="SourceGraphic" in2="effect1_dropShadow_151_203" result="shape"/>
</filter>
</defs>
</svg>
